<mxfile host="app.diagrams.net" modified="2024-01-28T16:47:24.477Z" agent="Mozilla/5.0 (Windows NT 10.0; Win64; x64) AppleWebKit/537.36 (KHTML, like Gecko) Chrome/120.0.0.0 Safari/537.36" etag="UL5yCCX21NR8jEuCJMDA" version="23.0.2" type="device">
  <diagram name="Page-1" id="74e2e168-ea6b-b213-b513-2b3c1d86103e">
    <mxGraphModel dx="794" dy="446" grid="1" gridSize="10" guides="1" tooltips="1" connect="1" arrows="1" fold="1" page="1" pageScale="1" pageWidth="1100" pageHeight="850" background="none" math="0" shadow="0">
      <root>
        <mxCell id="0" />
        <mxCell id="1" parent="0" />
        <mxCell id="FQPBpA8bWXi7phE03EZ3-1" value="&lt;b&gt;&lt;font style=&quot;font-size: 14px;&quot;&gt;YEAR&lt;/font&gt;&lt;/b&gt;" style="rounded=0;whiteSpace=wrap;html=1;" vertex="1" parent="1">
          <mxGeometry x="390" y="60" width="120" height="60" as="geometry" />
        </mxCell>
        <mxCell id="FQPBpA8bWXi7phE03EZ3-2" value="" style="endArrow=classic;html=1;rounded=0;exitX=0.5;exitY=1;exitDx=0;exitDy=0;" edge="1" parent="1" source="FQPBpA8bWXi7phE03EZ3-1">
          <mxGeometry width="50" height="50" relative="1" as="geometry">
            <mxPoint x="420" y="260" as="sourcePoint" />
            <mxPoint x="450" y="180" as="targetPoint" />
          </mxGeometry>
        </mxCell>
        <mxCell id="FQPBpA8bWXi7phE03EZ3-4" value="&lt;b&gt;&lt;font style=&quot;font-size: 12px;&quot;&gt;YEAR % 4&lt;/font&gt;&lt;/b&gt;" style="ellipse;whiteSpace=wrap;html=1;" vertex="1" parent="1">
          <mxGeometry x="395" y="180" width="110" height="50" as="geometry" />
        </mxCell>
        <mxCell id="FQPBpA8bWXi7phE03EZ3-5" value="" style="endArrow=classic;html=1;rounded=0;exitX=0;exitY=1;exitDx=0;exitDy=0;entryX=0.5;entryY=0;entryDx=0;entryDy=0;" edge="1" parent="1" source="FQPBpA8bWXi7phE03EZ3-4" target="FQPBpA8bWXi7phE03EZ3-6">
          <mxGeometry width="50" height="50" relative="1" as="geometry">
            <mxPoint x="420" y="260" as="sourcePoint" />
            <mxPoint x="390" y="270" as="targetPoint" />
          </mxGeometry>
        </mxCell>
        <mxCell id="FQPBpA8bWXi7phE03EZ3-6" value="&lt;b&gt;YEAR % 100&lt;/b&gt;" style="ellipse;whiteSpace=wrap;html=1;" vertex="1" parent="1">
          <mxGeometry x="320" y="270" width="110" height="50" as="geometry" />
        </mxCell>
        <mxCell id="FQPBpA8bWXi7phE03EZ3-7" value="&lt;b&gt;NO LEAP YEAR&lt;/b&gt;" style="ellipse;whiteSpace=wrap;html=1;" vertex="1" parent="1">
          <mxGeometry x="480" y="270" width="110" height="50" as="geometry" />
        </mxCell>
        <mxCell id="FQPBpA8bWXi7phE03EZ3-8" value="" style="endArrow=classic;html=1;rounded=0;exitX=1;exitY=1;exitDx=0;exitDy=0;entryX=0.5;entryY=0;entryDx=0;entryDy=0;" edge="1" parent="1" source="FQPBpA8bWXi7phE03EZ3-4" target="FQPBpA8bWXi7phE03EZ3-7">
          <mxGeometry width="50" height="50" relative="1" as="geometry">
            <mxPoint x="421" y="233" as="sourcePoint" />
            <mxPoint x="385" y="280" as="targetPoint" />
          </mxGeometry>
        </mxCell>
        <mxCell id="FQPBpA8bWXi7phE03EZ3-9" value="&lt;b style=&quot;border-color: var(--border-color);&quot;&gt;0&lt;/b&gt;" style="text;html=1;align=center;verticalAlign=middle;resizable=0;points=[];autosize=1;strokeColor=none;fillColor=none;" vertex="1" parent="1">
          <mxGeometry x="365" y="218" width="30" height="30" as="geometry" />
        </mxCell>
        <mxCell id="FQPBpA8bWXi7phE03EZ3-10" value="&lt;b&gt;!0&lt;/b&gt;" style="text;html=1;align=center;verticalAlign=middle;resizable=0;points=[];autosize=1;strokeColor=none;fillColor=none;" vertex="1" parent="1">
          <mxGeometry x="510" y="218" width="30" height="30" as="geometry" />
        </mxCell>
        <mxCell id="FQPBpA8bWXi7phE03EZ3-11" value="" style="endArrow=classic;html=1;rounded=0;exitX=0;exitY=1;exitDx=0;exitDy=0;entryX=0.5;entryY=0;entryDx=0;entryDy=0;" edge="1" parent="1" source="FQPBpA8bWXi7phE03EZ3-6" target="FQPBpA8bWXi7phE03EZ3-12">
          <mxGeometry width="50" height="50" relative="1" as="geometry">
            <mxPoint x="346" y="320" as="sourcePoint" />
            <mxPoint x="290" y="360" as="targetPoint" />
          </mxGeometry>
        </mxCell>
        <mxCell id="FQPBpA8bWXi7phE03EZ3-12" value="&lt;b&gt;YEAR % 400&lt;/b&gt;" style="ellipse;whiteSpace=wrap;html=1;" vertex="1" parent="1">
          <mxGeometry x="240" y="360" width="110" height="50" as="geometry" />
        </mxCell>
        <mxCell id="FQPBpA8bWXi7phE03EZ3-13" value="" style="endArrow=classic;html=1;rounded=0;exitX=1;exitY=1;exitDx=0;exitDy=0;entryX=0.5;entryY=0;entryDx=0;entryDy=0;" edge="1" parent="1" source="FQPBpA8bWXi7phE03EZ3-6" target="FQPBpA8bWXi7phE03EZ3-14">
          <mxGeometry width="50" height="50" relative="1" as="geometry">
            <mxPoint x="421" y="320" as="sourcePoint" />
            <mxPoint x="450" y="360" as="targetPoint" />
          </mxGeometry>
        </mxCell>
        <mxCell id="FQPBpA8bWXi7phE03EZ3-14" value="&lt;b&gt;LEAP YEAR&lt;/b&gt;" style="ellipse;whiteSpace=wrap;html=1;" vertex="1" parent="1">
          <mxGeometry x="400" y="360" width="110" height="50" as="geometry" />
        </mxCell>
        <mxCell id="FQPBpA8bWXi7phE03EZ3-15" value="&lt;b style=&quot;border-color: var(--border-color);&quot;&gt;0&lt;/b&gt;" style="text;html=1;align=center;verticalAlign=middle;resizable=0;points=[];autosize=1;strokeColor=none;fillColor=none;" vertex="1" parent="1">
          <mxGeometry x="290" y="310" width="30" height="30" as="geometry" />
        </mxCell>
        <mxCell id="FQPBpA8bWXi7phE03EZ3-16" value="&lt;b&gt;!0&lt;/b&gt;" style="text;html=1;align=center;verticalAlign=middle;resizable=0;points=[];autosize=1;strokeColor=none;fillColor=none;" vertex="1" parent="1">
          <mxGeometry x="430" y="310" width="30" height="30" as="geometry" />
        </mxCell>
        <mxCell id="FQPBpA8bWXi7phE03EZ3-18" value="" style="endArrow=classic;html=1;rounded=0;exitX=0;exitY=1;exitDx=0;exitDy=0;entryX=0.5;entryY=0;entryDx=0;entryDy=0;" edge="1" parent="1" source="FQPBpA8bWXi7phE03EZ3-12" target="FQPBpA8bWXi7phE03EZ3-19">
          <mxGeometry width="50" height="50" relative="1" as="geometry">
            <mxPoint x="261" y="402" as="sourcePoint" />
            <mxPoint x="210" y="460" as="targetPoint" />
          </mxGeometry>
        </mxCell>
        <mxCell id="FQPBpA8bWXi7phE03EZ3-19" value="&lt;b&gt;LEAP YEAR&lt;/b&gt;" style="ellipse;whiteSpace=wrap;html=1;" vertex="1" parent="1">
          <mxGeometry x="160" y="450" width="110" height="50" as="geometry" />
        </mxCell>
        <mxCell id="FQPBpA8bWXi7phE03EZ3-20" value="&lt;b style=&quot;border-color: var(--border-color);&quot;&gt;0&lt;/b&gt;" style="text;html=1;align=center;verticalAlign=middle;resizable=0;points=[];autosize=1;strokeColor=none;fillColor=none;" vertex="1" parent="1">
          <mxGeometry x="210" y="400" width="30" height="30" as="geometry" />
        </mxCell>
        <mxCell id="FQPBpA8bWXi7phE03EZ3-22" value="" style="endArrow=classic;html=1;rounded=0;exitX=1;exitY=1;exitDx=0;exitDy=0;entryX=0.5;entryY=0;entryDx=0;entryDy=0;" edge="1" parent="1" source="FQPBpA8bWXi7phE03EZ3-12" target="FQPBpA8bWXi7phE03EZ3-23">
          <mxGeometry width="50" height="50" relative="1" as="geometry">
            <mxPoint x="320" y="480" as="sourcePoint" />
            <mxPoint x="360" y="450" as="targetPoint" />
          </mxGeometry>
        </mxCell>
        <mxCell id="FQPBpA8bWXi7phE03EZ3-23" value="&lt;b&gt;NO LEAP YEAR&lt;/b&gt;" style="ellipse;whiteSpace=wrap;html=1;" vertex="1" parent="1">
          <mxGeometry x="320" y="450" width="110" height="50" as="geometry" />
        </mxCell>
        <mxCell id="FQPBpA8bWXi7phE03EZ3-24" value="&lt;b&gt;!0&lt;/b&gt;" style="text;html=1;align=center;verticalAlign=middle;resizable=0;points=[];autosize=1;strokeColor=none;fillColor=none;" vertex="1" parent="1">
          <mxGeometry x="350" y="400" width="30" height="30" as="geometry" />
        </mxCell>
      </root>
    </mxGraphModel>
  </diagram>
</mxfile>
